<svg xmlns="http://www.w3.org/2000/svg" viewBox="0 0 96 96" role="img" aria-label="Parsalogue logo">
  <rect width="96" height="96" rx="24" fill="#161618"/>
  <circle cx="31" cy="31" r="3.6" fill="#84a59d"/>
  <circle cx="67" cy="28" r="3.6" fill="#7b97aa"/>
  <circle cx="69" cy="67" r="3.6" fill="#84a59d"/>
  <path d="M31 31 67 28 69 67" fill="none" stroke="#393639" stroke-width="3.5" stroke-linecap="round"/>
  <path
    d="M34 72V24h22.5c12.2 0 20.5 7.1 20.5 18.1 0 10.8-8.3 17.8-20.5 17.8H46v12.1H34Zm12-22.7h9.7c5.9 0 9.3-2.7 9.3-7.2 0-4.7-3.4-7.5-9.3-7.5H46v14.7Z"
    fill="#ebebec"
  />
  <path d="M46 72V59.9h10.5c3.5 0 6.7-.5 9.4-1.5" fill="none" stroke="#7b97aa" stroke-width="2.8" stroke-linecap="round"/>
</svg>
